<svg width="16" height="16" viewBox="0 0 16 16" fill="none" xmlns="http://www.w3.org/2000/svg">
<path fill-rule="evenodd" clip-rule="evenodd" d="M4.83302 4.83333V4.75341C4.83302 3.30825 5.81143 2.04642 7.21105 1.68652C7.72839 1.55349 8.27098 1.55349 8.78831 1.68652C10.1879 2.04642 11.1664 3.30825 11.1664 4.75341V4.83333H12.1671C12.548 4.83333 12.8712 5.11265 12.9264 5.48948L13.0722 6.48445C13.3592 8.44342 13.3592 10.4338 13.0722 12.3927C12.9336 13.3388 12.1707 14.0701 11.2197 14.1687L10.8004 14.2122C8.93826 14.4053 7.06111 14.4053 5.19893 14.2122L4.77968 14.1687C3.82866 14.0701 3.0658 13.3388 2.92719 12.3927C2.64016 10.4338 2.64016 8.44342 2.92719 6.48445L3.07297 5.48948C3.12818 5.11265 3.45141 4.83333 3.83227 4.83333H4.83302ZM7.4601 2.65501C7.81406 2.56399 8.18531 2.56399 8.53927 2.65501C9.49691 2.90126 10.1664 3.76462 10.1664 4.75341V4.83333H5.83302V4.75341C5.83302 3.76462 6.50245 2.90126 7.4601 2.65501ZM4.83302 5.83333V7.33333C4.83302 7.60947 5.05688 7.83333 5.33302 7.83333C5.60916 7.83333 5.83302 7.60947 5.83302 7.33333V5.83333H10.1664V7.33333C10.1664 7.60947 10.3902 7.83333 10.6664 7.83333C10.9425 7.83333 11.1664 7.60947 11.1664 7.33333V5.83333H11.9661L12.0827 6.62942C12.3557 8.49226 12.3557 10.3849 12.0827 12.2478C12.0104 12.7412 11.6126 13.1226 11.1165 13.1741L10.6973 13.2176C8.90369 13.4036 7.09567 13.4036 5.30208 13.2176L4.88283 13.1741C4.3868 13.1226 3.98892 12.7412 3.91662 12.2478C3.64368 10.3849 3.64368 8.49226 3.91662 6.62942L4.03326 5.83333H4.83302Z" fill="#344054"/>
</svg>
